<svg viewBox="0 0 21 21" xmlns="http://www.w3.org/2000/svg" xmlns:xlink="http://www.w3.org/1999/xlink"><title>calendar</title><defs><path d="M0 .58v11.382c0 .85.692 1.538 1.546 1.538h13.908c.854 0 1.546-.688 1.546-1.538V.58H0zm4.25 11.78H1.16V9.32h3.09v3.04zm0-3.8H1.16V5.52h3.09v3.04zm0-3.8H1.16V1.72h3.09v3.04zm3.864 7.6h-3.09V9.32h3.09v3.04zm0-3.8h-3.09V5.52h3.09v3.04zm0-3.8h-3.09V1.72h3.09v3.04zm3.863 7.6h-3.09V9.32h3.09v3.04zm0-3.8h-3.09V5.52h3.09v3.04zm0-3.8h-3.09V1.72h3.09v3.04zm3.864 7.6h-3.09V9.32h3.09v3.04zm0-3.8h-3.09V5.52h3.09v3.04zm0-3.8h-3.09V1.72h3.09v3.04z" id="a"/><path d="M15.454 2.78h-2.51V1.07c0-.315-.26-.57-.58-.57-.32 0-.58.255-.58.57v1.71H5.216V1.07c0-.315-.26-.57-.58-.57-.32 0-.58.255-.58.57v1.71h-2.51C.692 2.78 0 3.468 0 4.318V5.82h17V4.318c0-.85-.692-1.538-1.546-1.538zM4.636 5.44c-.64 0-1.16-.51-1.16-1.14 0-.422.235-.79.58-.986V4.3c0 .315.26.57.58.57.32 0 .58-.255.58-.57v-.986c.346.197.58.564.58.986 0 .63-.52 1.14-1.16 1.14zm7.728 0c-.64 0-1.16-.51-1.16-1.14 0-.422.234-.79.58-.986V4.3c0 .315.26.57.58.57.32 0 .58-.255.58-.57v-.986c.345.197.58.564.58.986 0 .63-.52 1.14-1.16 1.14z" id="c"/></defs><g fill="none" fill-rule="evenodd"><g transform="translate(2 6)"><mask id="b" fill="#fff"><use xlink:href="#a"/></mask><path d="M-5-4.42h27V18.5H-5V-4.42z" fill="#9E9E9E" mask="url(#b)"/></g><g transform="translate(2)"><mask id="d" fill="#fff"><use xlink:href="#c"/></mask><path d="M-5-4.5h27v15.32H-5V-4.5z" fill="#9E9E9E" mask="url(#d)"/></g></g></svg>
