<?xml version="1.0" encoding="UTF-8" standalone="no"?>
<svg width="21px" height="21px" viewBox="0 0 21 21" version="1.1" xmlns="http://www.w3.org/2000/svg" xmlns:xlink="http://www.w3.org/1999/xlink" xmlns:sketch="http://www.bohemiancoding.com/sketch/ns">
    <!-- Generator: Sketch 3.3.2 (12043) - http://www.bohemiancoding.com/sketch -->
    <title>calendar</title>
    <desc>Created with Sketch.</desc>
    <defs>
        <path d="M0,0.58 L0,11.962 C0,12.812 0.692,13.5 1.5455,13.5 L15.4545,13.5 C16.308,13.5 17,12.812 17,11.962 L17,0.58 L0,0.58 L0,0.58 Z M4.25,12.36 L1.1591,12.36 L1.1591,9.32 L4.25,9.32 L4.25,12.36 L4.25,12.36 Z M4.25,8.56 L1.1591,8.56 L1.1591,5.52 L4.25,5.52 L4.25,8.56 L4.25,8.56 Z M4.25,4.76 L1.1591,4.76 L1.1591,1.72 L4.25,1.72 L4.25,4.76 L4.25,4.76 Z M8.1136,12.36 L5.0227,12.36 L5.0227,9.32 L8.1136,9.32 L8.1136,12.36 L8.1136,12.36 Z M8.1136,8.56 L5.0227,8.56 L5.0227,5.52 L8.1136,5.52 L8.1136,8.56 L8.1136,8.56 Z M8.1136,4.76 L5.0227,4.76 L5.0227,1.72 L8.1136,1.72 L8.1136,4.76 L8.1136,4.76 Z M11.9773,12.36 L8.8864,12.36 L8.8864,9.32 L11.9773,9.32 L11.9773,12.36 L11.9773,12.36 Z M11.9773,8.56 L8.8864,8.56 L8.8864,5.52 L11.9773,5.52 L11.9773,8.56 L11.9773,8.56 Z M11.9773,4.76 L8.8864,4.76 L8.8864,1.72 L11.9773,1.72 L11.9773,4.76 L11.9773,4.76 Z M15.8409,12.36 L12.75,12.36 L12.75,9.32 L15.8409,9.32 L15.8409,12.36 L15.8409,12.36 Z M15.8409,8.56 L12.75,8.56 L12.75,5.52 L15.8409,5.52 L15.8409,8.56 L15.8409,8.56 Z M15.8409,4.76 L12.75,4.76 L12.75,1.72 L15.8409,1.72 L15.8409,4.76 L15.8409,4.76 Z" id="path-1"></path>
        <path d="M15.4545,2.78 L12.9432,2.78 L12.9432,1.07 C12.9432,0.755 12.6835,0.5 12.3636,0.5 C12.0435,0.5 11.7841,0.755 11.7841,1.07 L11.7841,2.78 L5.2159,2.78 L5.2159,1.07 C5.2159,0.755 4.9563,0.5 4.6364,0.5 C4.3163,0.5 4.0568,0.755 4.0568,1.07 L4.0568,2.78 L1.5455,2.78 C0.692,2.78 0,3.468 0,4.318 L0,5.63 L0,5.82 L17,5.82 L17,5.63 L17,4.318 C17,3.468 16.308,2.78 15.4545,2.78 L15.4545,2.78 Z M4.6364,5.44 C3.9964,5.44 3.4773,4.929 3.4773,4.3 C3.4773,3.878 3.7108,3.511 4.0568,3.314 L4.0568,4.3 C4.0568,4.615 4.3163,4.87 4.6364,4.87 C4.9563,4.87 5.2159,4.615 5.2159,4.3 L5.2159,3.314 C5.5621,3.511 5.7955,3.878 5.7955,4.3 C5.7955,4.929 5.2766,5.44 4.6364,5.44 L4.6364,5.44 Z M12.3636,5.44 C11.7236,5.44 11.2045,4.929 11.2045,4.3 C11.2045,3.878 11.4381,3.511 11.7841,3.314 L11.7841,4.3 C11.7841,4.615 12.0435,4.87 12.3636,4.87 C12.6835,4.87 12.9432,4.615 12.9432,4.3 L12.9432,3.314 C13.2894,3.511 13.5227,3.878 13.5227,4.3 C13.5227,4.929 13.0038,5.44 12.3636,5.44 L12.3636,5.44 Z" id="path-3"></path>
    </defs>
    <g id="Page-1" stroke="none" stroke-width="1" fill="none" fill-rule="evenodd" sketch:type="MSPage">
        <g id="dategrid" sketch:type="MSLayerGroup" transform="translate(2.000000, 6.000000)">
            <mask id="mask-2" sketch:name="Clip 283" fill="white">
                <use xlink:href="#path-1"></use>
            </mask>
            <g id="Clip-283"></g>
            <path d="M-5,-4.42 L22,-4.42 L22,18.5 L-5,18.5 L-5,-4.42 Z" id="Fill-282" fill="#9E9E9E" sketch:type="MSShapeGroup" mask="url(#mask-2)"></path>
        </g>
        <g id="header" sketch:type="MSLayerGroup" transform="translate(2.000000, 0.000000)">
            <mask id="mask-4" sketch:name="Clip 286" fill="white">
                <use xlink:href="#path-3"></use>
            </mask>
            <g id="Clip-286"></g>
            <path d="M-5,-4.5 L22,-4.5 L22,10.82 L-5,10.82 L-5,-4.5 Z" id="Fill-285" fill="#9E9E9E" sketch:type="MSShapeGroup" mask="url(#mask-4)"></path>
        </g>
    </g>
</svg>